<svg width="31" height="33" viewBox="0 0 27 33" fill="none" xmlns="http://www.w3.org/2000/svg">
<path fill-rule="evenodd" clip-rule="evenodd" d="M12.2085 2.75C11.4951 2.75 10.9168 3.36561 10.9168 4.125V5.5H16.0835V4.125C16.0835 3.36561 15.5052 2.75 14.7918 2.75H12.2085ZM18.6668 5.5V4.125C18.6668 1.84683 16.932 0 14.7918 0H12.2085C10.0684 0 8.3335 1.84683 8.3335 4.125V5.5H1.87516C1.1618 5.5 0.583496 6.11561 0.583496 6.875C0.583496 7.63439 1.1618 8.25 1.87516 8.25H2.01074L4.21105 29.3305C4.42911 31.4196 6.08786 33 8.06236 33H18.938C20.9125 33 22.5713 31.4196 22.7893 29.3305L24.9895 8.25H25.1252C25.8386 8.25 26.4168 7.63439 26.4168 6.875C26.4168 6.11561 25.8386 5.5 25.1252 5.5H18.6668ZM22.3903 8.25H4.60996L6.77859 29.0268C6.85127 29.7232 7.40419 30.25 8.06236 30.25H18.938C19.5962 30.25 20.149 29.7232 20.2217 29.0268L22.3903 8.25ZM10.9168 12.375C11.6302 12.375 12.2085 12.9906 12.2085 13.75V24.75C12.2085 25.5094 11.6302 26.125 10.9168 26.125C10.2035 26.125 9.62516 25.5094 9.62516 24.75V13.75C9.62516 12.9906 10.2035 12.375 10.9168 12.375ZM16.0835 12.375C16.7969 12.375 17.3752 12.9906 17.3752 13.75V24.75C17.3752 25.5094 16.7969 26.125 16.0835 26.125C15.3701 26.125 14.7918 25.5094 14.7918 24.75V13.75C14.7918 12.9906 15.3701 12.375 16.0835 12.375Z" fill="white"/>
</svg>
