<svg xmlns="http://www.w3.org/2000/svg" viewBox="0 0 190.36 68.19"><g id="Layer_2" data-name="Layer 2"><g id="Layer_1-2" data-name="Layer 1"><path d="M15.81,27.23c.33,1,1.49,1.49,3.5,1.49a24.81,24.81,0,0,0,8.76-2.18,14.65,14.65,0,0,1,4.22-1.26,7.81,7.81,0,0,1,2.51.39c.78.27,1.17.54,1.17.82s-.43.68-1.3,1.16a49,49,0,0,1-5.48,2.56,62.9,62.9,0,0,1-6,2.08,51.74,51.74,0,0,1-5.75,1.31,31.47,31.47,0,0,1-5.12.48,19.36,19.36,0,0,1-9-1.77C1.12,31.14,0,29.56,0,27.6a9.86,9.86,0,0,1,1.77-5.08,22.26,22.26,0,0,1,4.79-5.31,30.88,30.88,0,0,1,8.71-4.82,35.59,35.59,0,0,1,12.21-2.32,12.68,12.68,0,0,1,6.63,1.47,4.53,4.53,0,0,1,2.4,4,6.44,6.44,0,0,1-1.91,4.18A20,20,0,0,1,29,23.94a33.57,33.57,0,0,1-6,2.62,17.1,17.1,0,0,1-5.14.94A8,8,0,0,1,15.81,27.23Zm-.09-.79a13.89,13.89,0,0,0,3.14-1.53,12.42,12.42,0,0,0,3.68-3.69,11,11,0,0,0,1.62-3A9.61,9.61,0,0,0,24.75,15c0-.91-.35-1.36-1-1.36-1,0-2.42,1.16-4.4,3.49a23.56,23.56,0,0,0-2.85,4.19,8.05,8.05,0,0,0-1.1,3.6A4.66,4.66,0,0,0,15.72,26.44Z" fill="#fff"/><path d="M83.87,25.18,71.61,32.1a23.74,23.74,0,0,1-3.84,1.8,10.2,10.2,0,0,1-3.21.48A8.74,8.74,0,0,1,60,33.25a3.23,3.23,0,0,1-1.87-2.75,5.22,5.22,0,0,1,.57-2.22,26.29,26.29,0,0,1,2.22-3.57,7.25,7.25,0,0,1,.61-.85l.47-.61-.18-.1q-4.37,2.52-8.54,5.32c-2.33,1.53-4.19,2.68-5.56,3.44A23.87,23.87,0,0,1,44,33.61a9.3,9.3,0,0,1-3,.57,7.63,7.63,0,0,1-4.62-1.26,4,4,0,0,1-1.71-3.44q0-2.75,4.31-8.88a47.24,47.24,0,0,1,6-7.29A10.78,10.78,0,0,1,52,10.73a11,11,0,0,1,4,.63c1.07.43,1.6,1,1.6,1.65,0,1.24-.85,3.12-2.55,5.66-.66.94-1.33,2-2,3.19l.18.1q1.66-1,5.34-3.49a83.81,83.81,0,0,1,9.57-5.86,17.12,17.12,0,0,1,7.63-2.12,7.63,7.63,0,0,1,2.92.57,5.8,5.8,0,0,1,2.23,1.52,3,3,0,0,1,.83,2q0,1.06-2.78,5.44c-.39.61-.68,1.09-.89,1.44s-.4.64-.58.89l.22.1,1.12-.62c.33-.18.7-.38,1.1-.58l1.14-.58q1.22-.64,6.1-3.39a35,35,0,0,1,5.07-2.71,9.55,9.55,0,0,1,3.55-.73,7.21,7.21,0,0,1,4.24,1.05,3.58,3.58,0,0,1,1.46,3.1,17.58,17.58,0,0,1-.72,4c-.42,2.05-.71,3.65-.87,4.81a19.73,19.73,0,0,0-.25,2.44,10.56,10.56,0,0,0,.11,1.32,12.53,12.53,0,0,0,.38,1.72c.18.61.42,1.29.72,2a16.6,16.6,0,0,1,.72,2.13c-.24.59-1,1.09-2.36,1.51a14.62,14.62,0,0,1-4.33.61A13.83,13.83,0,0,1,88,36.7,9.43,9.43,0,0,1,85.78,35a4.92,4.92,0,0,1-1.12-2,11.36,11.36,0,0,1-.34-3.1,49.52,49.52,0,0,1,.54-5.22l-.18-.1Z" fill="#fff"/><path d="M143.94,38.53Q137.66,43,134.38,43a13.85,13.85,0,0,1-5-1,20.29,20.29,0,0,1-4.92-2.77,15.67,15.67,0,0,1-3.63-3.77,7,7,0,0,1-1.35-3.86,1.46,1.46,0,0,1,.63-1.39c.18-.09.58-.26,1.21-.49q7.55-2.57,7.54-4.87c0-.81-.64-1.21-1.93-1.21s-3.15.73-5.32,2.18a28.12,28.12,0,0,0-5.9,5.36,9,9,0,0,1-2.7,2.55,7.77,7.77,0,0,1-3.19.49,10.62,10.62,0,0,1-4.13-.73A6.13,6.13,0,0,1,103,31.37a5.14,5.14,0,0,1-1-3.07,16.36,16.36,0,0,1,1.21-5.84,31.25,31.25,0,0,1,3.39-6.36,44.4,44.4,0,0,1,5.19-6.23,46.76,46.76,0,0,1,6.29-5.37Q124.55,0,130.7,0a17.93,17.93,0,0,1,5.45.77,8.42,8.42,0,0,1,3.71,2.17,4.74,4.74,0,0,1,1.3,3.29,6.87,6.87,0,0,1-2.07,4.59,15.39,15.39,0,0,1-5.36,3.74A16.45,16.45,0,0,1,127.1,16c-1,0-1.57-.2-1.57-.62,0-.16.27-.55.81-1.16a14.06,14.06,0,0,0,3.95-9.77q0-1.41-.63-1.41a2.78,2.78,0,0,0-1.37.72,11.29,11.29,0,0,0-1.77,1.76,38.09,38.09,0,0,0-7.14,14.07c-.09.28-.19.65-.29,1.11s-.24,1-.39,1.59l.18.09a31.29,31.29,0,0,1,3-2.14,25.72,25.72,0,0,1,3.16-1.52A28.8,28.8,0,0,1,136.4,16.1a9.83,9.83,0,0,1,4.42.87,2.56,2.56,0,0,1,1.73,2.22q0,3.35-3.86,6.88a23.49,23.49,0,0,1-2.49,2.05c-.94.67-2.29,1.55-4.06,2.62a43.43,43.43,0,0,0,3.69,3,30.28,30.28,0,0,0,4.64,2.67A14.09,14.09,0,0,1,143.94,38.53Z" fill="#fff"/><path d="M173.34,26.94V27l-.18-.09a79.86,79.86,0,0,1-7.66,4.41,39.44,39.44,0,0,1-6.42,2.58,19.16,19.16,0,0,1-5.41.87A16.81,16.81,0,0,1,145.36,33c-2.18-1.24-3.28-2.81-3.28-4.7a7.84,7.84,0,0,1,1.62-4.16,22,22,0,0,1,4.45-4.7A42.13,42.13,0,0,1,160,13a41.15,41.15,0,0,1,14.19-2.7,29.19,29.19,0,0,1,9.46,1.3q3.71,1.31,3.7,3.28A4.43,4.43,0,0,1,185.51,18a9.54,9.54,0,0,1,3.05.29q.63.29.63,1.32a8.88,8.88,0,0,0-.22,1,42.05,42.05,0,0,0-.27,4.58c0,.74,0,1.3,0,1.68a13.06,13.06,0,0,0,.18,1.31,11.06,11.06,0,0,0,.27,1.19,8.2,8.2,0,0,0,1.17,2.3,24.85,24.85,0,0,1-5.16,2.14,19.06,19.06,0,0,1-5,.68q-6.91,0-6.92-6.38A5.78,5.78,0,0,1,173.34,26.94Zm2.7-5.67-.86.15a34.7,34.7,0,0,1-4.67.49c-1.17,0-1.75-.16-1.75-.49,0-.12.24-.42.72-.92Q172,18.4,172,16.55a3.14,3.14,0,0,0-.67-2,1.89,1.89,0,0,0-1.48-.87,5.19,5.19,0,0,0-2.2.84A30,30,0,0,0,161,19.69c-1.63,1.75-2.44,3.3-2.44,4.67a2.84,2.84,0,0,0,1,2.25,3.64,3.64,0,0,0,2.53.89A15.73,15.73,0,0,0,167,26a79.84,79.84,0,0,0,8-4.06l1.21-.54Z" fill="#fff"/><path d="M103.85,63.43V37.78h1.73V63.43Zm1.2-23.29V37.78h8v2.36Zm0,12V49.74h7.09v2.37Z" fill="#fff"/><path d="M118.91,40.81V38.29h1.75v2.52Zm0,22.62V45.12h1.75V63.43Z" fill="#fff"/><path d="M126.13,63.43l4.42-10,.89,2.13L128,63.43Zm8.17,0L130.65,55l-4.38-9.84h1.92l3.41,8.2,4.61,10.11Zm-2.46-8.54L131,53l3.09-7.89H136Z" fill="#fff"/><path d="M141.49,63.43V37.78h1.73V63.43Zm1.26-10V51.12h4.66A2.1,2.1,0,0,0,149.27,50a5.88,5.88,0,0,0,.69-3.06V44.41a6,6,0,0,0-.69-3.12,2.1,2.1,0,0,0-1.86-1.15h-4.66V37.78h4.56a3.59,3.59,0,0,1,2.34.8,5.11,5.11,0,0,1,1.51,2.29,10.28,10.28,0,0,1,.54,3.53v2.54a10.1,10.1,0,0,1-.54,3.48,5,5,0,0,1-1.52,2.27,3.57,3.57,0,0,1-2.33.79Z" fill="#fff"/><path d="M156.91,63.43V45.12h1.73V63.43Zm6.53-15.65a1.37,1.37,0,0,0-.51-.45,1.52,1.52,0,0,0-.69-.15,3.12,3.12,0,0,0-2.61,1.24,5.7,5.7,0,0,0-1,3.42l-.25-3.53a6.49,6.49,0,0,1,1.79-2.57,3.7,3.7,0,0,1,2.44-.92,1.65,1.65,0,0,1,.77.18,1.92,1.92,0,0,1,.6.54Z" fill="#fff"/><path d="M172.88,63.7A3.63,3.63,0,0,1,169.66,62a8.94,8.94,0,0,1-1.14-4.91V51.4a8.78,8.78,0,0,1,1.14-4.86,3.87,3.87,0,0,1,6.44,0,8.78,8.78,0,0,1,1.14,4.86v5.7A8.81,8.81,0,0,1,176.1,62,3.65,3.65,0,0,1,172.88,63.7Zm0-2.37a2.17,2.17,0,0,0,1.95-1.11,5.86,5.86,0,0,0,.69-3.1V51.38a5.8,5.8,0,0,0-.69-3.09,2.28,2.28,0,0,0-3.89,0,5.9,5.9,0,0,0-.68,3.09v5.74a6,6,0,0,0,.68,3.1A2.16,2.16,0,0,0,172.87,61.33Z" fill="#fff"/><polygon points="59.47 47.79 48.14 47.67 43.93 41.67 18.25 41.67 16.58 44.67 6.48 44.67 6.48 43.18 15.7 43.18 17.36 40.18 44.71 40.18 48.92 46.18 59.49 46.29 59.47 47.79" fill="#fff"/><path d="M4,48.19C2.15,48.19.71,46.1.71,43.43S2.15,38.66,4,38.66s3.27,2.09,3.27,4.77S5.81,48.19,4,48.19Zm0-8c-.82,0-1.73,1.33-1.73,3.24S3.16,46.66,4,46.66s1.73-1.33,1.73-3.23S4.8,40.19,4,40.19Z" fill="#fff"/><path d="M62,52.19c-1.83,0-3.27-2.09-3.27-4.76s1.44-4.77,3.27-4.77,3.27,2.09,3.27,4.77S63.81,52.19,62,52.19Zm0-8c-.82,0-1.73,1.33-1.73,3.24s.91,3.23,1.73,3.23,1.73-1.33,1.73-3.23S62.8,44.19,62,44.19Z" fill="#fff"/><path d="M21,54.19c-1.83,0-3.27-2.09-3.27-4.76s1.44-4.77,3.27-4.77,3.27,2.09,3.27,4.77S22.81,54.19,21,54.19Zm0-8c-.82,0-1.73,1.33-1.73,3.24s.91,3.23,1.73,3.23,1.73-1.33,1.73-3.23S21.8,46.19,21,46.19Z" fill="#fff"/><path d="M42,54.19c-1.83,0-3.27-2.09-3.27-4.76s1.44-4.77,3.27-4.77,3.27,2.09,3.27,4.77S43.81,54.19,42,54.19Zm0-8c-.82,0-1.73,1.33-1.73,3.24s.91,3.23,1.73,3.23,1.73-1.33,1.73-3.23S42.8,46.19,42,46.19Z" fill="#fff"/><rect x="23.48" y="48.59" width="16" height="1.62" transform="translate(-0.18 0.11) rotate(-0.21)" fill="#fff"/><polygon points="25.49 65.23 25.47 63.62 57.28 63.27 65.5 52.62 78.66 52.62 82.27 46.62 90.47 46.5 90.49 48.12 83.19 48.23 79.57 54.23 66.29 54.23 58.08 64.88 25.49 65.23" fill="#fff"/><path d="M23,68.19c-1.83,0-3.27-2.09-3.27-4.76s1.44-4.77,3.27-4.77,3.27,2.09,3.27,4.77S24.81,68.19,23,68.19Zm0-8c-.82,0-1.73,1.33-1.73,3.24s.91,3.23,1.73,3.23,1.73-1.33,1.73-3.23S23.8,60.19,23,60.19Z" fill="#fff"/><path d="M92,52.19c-1.83,0-3.27-2.09-3.27-4.76s1.44-4.77,3.27-4.77,3.27,2.09,3.27,4.77S93.81,52.19,92,52.19Zm0-8c-.82,0-1.73,1.33-1.73,3.24s.91,3.23,1.73,3.23,1.73-1.33,1.73-3.23S92.8,44.19,92,44.19Z" fill="#fff"/></g></g></svg>